<svg width="120" height="38" viewBox="0 0 120 38" fill="none" xmlns="http://www.w3.org/2000/svg">
<path d="M60.5613 27.3431C62.1831 27.3431 63.4041 26.7716 63.4041 25.037C63.4041 23.4051 62.228 22.7309 60.5613 22.7309H56.0273C55.7618 22.7309 55.5071 22.8364 55.3194 23.0241C55.1316 23.2119 55.0262 23.4665 55.0262 23.732V35.64C54.0576 35.6397 53.1288 35.2546 52.4441 34.5696C51.7593 33.8846 51.3746 32.9556 51.3746 31.9871V24.3484C51.3784 23.0268 51.905 21.7604 52.8394 20.8258C53.7737 19.8912 55.0399 19.3642 56.3615 19.36H60.6756C64.4371 19.36 67.0788 21.426 67.0788 25.0327C67.0788 28.7305 64.3055 30.7053 60.6756 30.7053H56.2472" fill="#08277E"/>
<path d="M72.7847 35.6357C71.8161 35.6353 70.8874 35.2503 70.2026 34.5652C69.5178 33.8802 69.1332 32.9513 69.1332 31.9827V22.8871C69.1332 21.9517 69.5048 21.0546 70.1662 20.3931C70.8277 19.7316 71.7248 19.36 72.6603 19.36C73.7555 19.36 74.6857 20.0573 75.2051 21.0035C76.9629 24.331 76.3957 23.272 77.5951 25.5563C77.6524 25.6658 77.7386 25.7574 77.8443 25.8213C77.95 25.8853 78.0712 25.9191 78.1947 25.9191C78.3183 25.9191 78.4394 25.8853 78.5452 25.8213C78.6509 25.7574 78.7371 25.6658 78.7944 25.5563L81.1844 21.0021C81.8123 20.0559 82.498 19.3586 83.7306 19.3586C84.6658 19.359 85.5626 19.7307 86.2237 20.3922C86.8849 21.0536 87.2563 21.9505 87.2563 22.8857V32.2069C87.2563 33.1157 86.8954 33.9872 86.253 34.6299C85.6105 35.2726 84.7392 35.6338 83.8305 35.6342H83.5932V25.2873C83.593 25.2318 83.5743 25.1779 83.54 25.1343C83.5058 25.0906 83.4579 25.0597 83.404 25.0464C83.3501 25.0331 83.2933 25.0382 83.2427 25.0609C83.192 25.0835 83.1504 25.1225 83.1245 25.1715L79.3094 32.4457C79.2073 32.64 79.054 32.8027 78.8661 32.9162C78.6781 33.0297 78.4627 33.0896 78.2432 33.0894H78.2244C77.9989 33.0901 77.7776 33.0294 77.5841 32.9136C77.3906 32.7979 77.2323 32.6316 77.1263 32.4326L73.252 25.1469C73.2256 25.0985 73.1839 25.0603 73.1334 25.0381C73.0829 25.016 73.0265 25.0113 72.973 25.0247C72.9195 25.0381 72.872 25.0689 72.838 25.1122C72.8039 25.1556 72.7851 25.209 72.7847 25.2641V35.6357Z" fill="#08277E"/>
<path d="M99.28 29.1297C99.3191 29.1297 100.821 29.0892 100.805 29.0516L98.8315 24.5494C98.7894 24.4534 98.7202 24.3719 98.6325 24.3146C98.5448 24.2573 98.4423 24.2268 98.3375 24.2268C98.2327 24.2268 98.1302 24.2573 98.0425 24.3146C97.9547 24.3719 97.8856 24.4534 97.8434 24.5494L92.9636 35.6371C92.5288 35.6385 92.1005 35.531 91.7178 35.3244C91.3351 35.1179 91.0103 34.8187 90.7729 34.4543C90.5356 34.09 90.3933 33.6719 90.3589 33.2384C90.3246 32.8049 90.3994 32.3697 90.5765 31.9725L95.3146 21.2031C95.7023 20.2902 97.3978 19.3542 98.5393 19.3542C99.6808 19.3542 100.964 20.2902 101.352 21.2031L106.088 31.9725C106.264 32.3693 106.337 32.8035 106.302 33.2359C106.267 33.6683 106.125 34.0851 105.888 34.4485C105.651 34.8118 105.327 35.1102 104.945 35.3165C104.564 35.5228 104.136 35.6305 103.703 35.6298L102.299 32.434H95.6907" fill="#08277E"/>
<path d="M115.618 19.36H118.317C118.764 19.3604 119.192 19.538 119.507 19.8538C119.823 20.1696 120 20.5977 120 21.044C120 21.4903 119.823 21.9182 119.507 22.2338C119.192 22.5493 118.764 22.7266 118.317 22.7266H114.908C114.748 22.7266 114.595 22.79 114.482 22.9028C114.369 23.0157 114.306 23.1688 114.306 23.3284V31.9827C114.306 32.9515 113.921 33.8807 113.236 34.5658C112.551 35.2508 111.622 35.6357 110.653 35.6357V23.3284C110.653 23.1688 110.589 23.0157 110.476 22.9028C110.364 22.79 110.21 22.7266 110.051 22.7266H106.641C106.195 22.7266 105.767 22.5493 105.451 22.2338C105.136 21.9182 104.958 21.4903 104.958 21.044C104.958 20.5977 105.136 20.1696 105.451 19.8538C105.767 19.538 106.195 19.3604 106.641 19.36H109.341" fill="#08277E"/>
<path d="M22.3504 33.2312L15.14 26.7643L26.2797 26.867L27.0798 27.5904C29.723 29.9471 32.5513 30.805 35.0787 27.9795C37.4644 25.3219 36.5327 22.508 33.8201 20.0732L24.8055 11.986L5.94748 33.0055L0 27.67L16.4927 9.29655C20.4943 4.8363 27.4039 4.42688 31.8641 8.42852L38.9241 14.7565C45.0394 20.2425 46.3328 27.4746 41.0638 33.3469C35.6618 39.3696 28.2603 38.5334 22.3504 33.2312Z" fill="#08277E"/>
<path d="M14.4137 0V7.30596L7.05566 15.5074V0H14.4137Z" fill="#08637E"/>
</svg>
